<?xml version="1.0" standalone="no"?>
<!DOCTYPE svg PUBLIC "-//W3C//DTD SVG 20010904//EN"
 "http://www.w3.org/TR/2001/REC-SVG-20010904/DTD/svg10.dtd">
<svg version="1.0" xmlns="http://www.w3.org/2000/svg"
 width="563.000000pt" height="563.000000pt" viewBox="0 0 563.000000 563.000000"
 preserveAspectRatio="xMidYMid meet">
<metadata>
Created by potrace 1.14, written by Peter Selinger 2001-2017
</metadata>
<g transform="translate(0.000000,563.000000) scale(0.100000,-0.100000)"
fill="#000000" stroke="none">
<path d="M2796 5404 c-3 -11 -6 -22 -6 -26 -1 -4 -7 -23 -15 -42 -8 -18 -11
-36 -8 -40 4 -3 2 -6 -4 -6 -5 0 -10 -6 -10 -12 0 -18 -52 -179 -63 -200 -6
-10 -10 -23 -10 -29 0 -7 -51 -170 -114 -363 -108 -331 -128 -394 -131 -406
-1 -3 -4 -12 -7 -20 -4 -8 -32 -95 -64 -192 l-57 -178 -121 -1 c-67 0 -256 -2
-421 -5 -165 -2 -478 -6 -695 -8 -217 -3 -403 -5 -414 -5 -15 -1 -16 -4 -6
-16 7 -8 18 -15 25 -15 8 0 15 -3 17 -7 3 -9 12 -15 208 -148 80 -55 147 -103
148 -107 2 -5 8 -6 13 -2 5 3 9 0 9 -5 0 -6 7 -11 15 -11 8 0 15 -4 15 -8 0
-5 373 -9 830 -8 l829 0 10 28 c6 15 7 28 4 28 -3 0 -1 6 4 13 9 11 51 130 58
167 2 8 4 17 5 20 1 4 20 -33 25 -50 19 -62 47 -145 58 -172 l15 -36 381 1
c246 1 382 -2 385 -8 3 -7 5 -7 5 0 1 7 139 10 396 9 360 -2 397 0 418 16 12
9 45 33 72 52 42 30 159 112 230 164 88 63 198 143 200 146 4 4 -136 3 -785
-7 -239 -3 -441 -6 -447 -6 -7 1 -19 1 -25 1 -7 1 -104 -1 -215 -2 -196 -4
-202 -3 -213 17 -6 12 -12 27 -13 35 -2 8 -6 21 -10 28 -5 7 -11 24 -13 39 -3
15 -9 32 -14 38 -4 5 -9 15 -10 20 -5 21 -9 33 -55 165 -50 144 -72 206 -130
365 -20 55 -38 107 -40 115 -4 17 -43 128 -52 150 -3 8 -7 18 -8 23 -2 4 -4 9
-5 12 -1 3 -3 8 -4 13 -1 4 -9 27 -18 52 -9 25 -30 83 -46 130 -114 322 -115
326 -126 294z"/>
<path d="M2977 3482 c-9 -2 -17 -8 -17 -13 0 -6 18 -65 41 -132 22 -67 42
-126 43 -132 2 -5 8 -23 14 -38 7 -16 12 -33 12 -39 0 -9 25 -87 48 -148 3 -8
6 -17 6 -20 1 -3 7 -20 15 -38 8 -18 11 -35 8 -39 -8 -8 -595 -8 -603 0 -4 3
-3 14 1 24 5 10 9 25 11 33 2 8 7 23 13 35 5 11 28 79 51 150 23 72 44 137 47
145 3 8 7 20 8 25 2 6 17 49 33 98 l31 87 -767 0 c-438 0 -762 -4 -756 -9 9
-9 213 -148 242 -166 22 -13 144 -97 157 -107 6 -5 28 -20 50 -35 22 -14 106
-70 187 -125 l147 -99 -16 -52 c-8 -29 -35 -113 -60 -187 -35 -108 -91 -284
-98 -310 -1 -3 -4 -12 -8 -20 -17 -45 -90 -277 -90 -287 0 -7 -3 -13 -7 -13
-4 0 -7 -6 -8 -12 -1 -20 -9 -49 -31 -105 -10 -29 -18 -53 -16 -53 2 0 -2 -15
-10 -34 -8 -18 -11 -36 -8 -40 4 -3 2 -6 -4 -6 -5 0 -10 -6 -10 -12 -1 -7 -13
-49 -27 -93 -14 -44 -26 -85 -26 -92 0 -7 -4 -13 -8 -13 -5 0 -9 -6 -9 -12 0
-7 -12 -50 -26 -95 -15 -45 -27 -87 -27 -92 0 -9 204 129 220 148 3 3 13 11
22 16 9 6 76 53 148 105 72 52 153 109 178 127 26 17 54 39 63 47 9 9 21 16
27 16 5 0 12 4 14 8 2 5 56 46 122 93 65 46 137 98 161 114 23 17 69 50 103
74 34 24 62 47 62 51 0 4 -68 7 -150 7 -83 0 -152 2 -154 4 -3 3 48 165 55
177 2 2 1 1 19 65 7 26 17 48 24 49 6 0 126 2 266 3 168 1 257 -3 262 -9 5 -8
8 -8 8 0 0 11 48 12 66 1 6 -3 14 -3 18 1 12 11 146 9 146 -3 0 -7 3 -7 8 0
13 20 66 12 78 -11 13 -24 89 -254 89 -268 0 -6 -62 -9 -147 -9 -81 0 -145 -3
-142 -8 3 -5 67 -50 142 -100 183 -123 196 -133 200 -141 2 -5 10 -8 18 -8 8
0 14 -4 14 -10 0 -5 5 -10 10 -10 6 0 41 -22 79 -50 38 -27 74 -50 80 -50 6 0
11 -4 11 -10 0 -5 5 -10 10 -10 11 0 24 -10 61 -42 10 -10 22 -19 27 -19 9 -2
200 -130 217 -146 8 -7 18 -13 22 -13 5 0 18 -8 29 -17 30 -28 143 -103 154
-103 6 0 10 -3 10 -7 0 -5 14 -16 30 -25 17 -9 30 -16 30 -15 0 4 -79 229 -87
247 -3 8 -7 20 -9 25 -1 6 -23 69 -49 140 -25 72 -57 162 -70 200 -12 39 -30
88 -38 110 -9 22 -43 119 -77 215 -33 96 -65 183 -70 192 -6 10 -10 26 -10 36
0 10 -3 22 -7 26 -5 4 -8 11 -9 14 0 4 -4 14 -7 22 -7 18 -57 161 -61 175 -2
6 -9 24 -15 40 -32 76 -28 86 46 137 37 26 93 66 123 88 30 22 62 43 70 47 8
4 26 18 40 31 14 13 39 30 55 39 17 9 32 19 35 22 3 4 30 24 60 46 30 22 58
44 62 50 4 5 8 7 8 3 0 -7 25 11 55 40 8 6 16 12 20 12 3 0 11 4 18 10 57 47
75 59 79 54 3 -3 8 2 11 11 6 13 -30 15 -316 15 -177 0 -493 1 -703 3 -209 1
-388 1 -397 -1z"/>
<path d="M2330 1130 c0 -5 5 -10 11 -10 5 0 7 5 4 10 -3 6 -8 10 -11 10 -2 0
-4 -4 -4 -10z"/>
<path d="M2444 1125 c-4 -8 -10 -12 -15 -9 -6 3 -16 1 -23 -5 -10 -9 -15 -7
-21 6 -6 17 -7 17 -21 -1 -8 -11 -14 -16 -14 -12 0 5 -8 2 -17 -5 -14 -12 -16
-12 -9 1 4 8 1 7 -8 -4 -11 -14 -22 -17 -43 -12 -21 5 -24 4 -13 -4 13 -9 13
-12 -2 -21 -43 -25 -90 -115 -91 -176 -1 -13 -7 -23 -16 -23 -11 0 -10 -4 5
-14 16 -13 17 -18 7 -35 -9 -15 -10 -22 -1 -27 7 -5 8 -3 3 6 -6 9 -4 11 4 6
7 -5 10 -14 7 -21 -3 -8 4 -25 16 -40 15 -19 17 -29 9 -39 -8 -10 -7 -17 4
-26 10 -9 15 -9 15 -1 0 6 -5 11 -11 11 -5 0 -7 5 -4 10 5 8 11 7 21 -1 7 -6
11 -15 8 -20 -3 -5 2 -9 11 -9 9 0 25 -9 37 -20 12 -11 17 -20 11 -20 -7 0
-19 7 -27 16 -9 8 -16 11 -16 5 0 -18 40 -34 54 -22 12 10 55 1 100 -21 13 -7
16 -6 11 3 -5 7 -3 10 6 7 8 -3 13 -11 11 -17 -1 -7 2 -10 8 -6 6 3 7 11 4 17
-4 6 -1 8 7 6 8 -3 13 -11 11 -17 -1 -7 2 -10 8 -6 6 3 8 11 5 16 -5 7 9 13
18 7 1 -1 13 4 26 11 14 8 21 9 17 2 -5 -7 -1 -9 8 -5 9 3 13 10 10 15 -3 5 2
9 11 9 8 0 18 7 21 15 5 12 9 12 29 -1 18 -11 25 -12 31 -3 4 7 3 9 -2 6 -6
-3 -16 -1 -24 4 -13 8 -13 11 2 23 13 10 15 15 6 24 -9 9 -9 15 1 25 12 10 13
8 7 -8 -5 -15 -4 -17 4 -8 9 8 9 16 1 30 -6 10 -11 13 -11 7 0 -18 -30 -26
-30 -8 0 9 5 12 12 8 7 -4 8 -3 4 5 -6 9 -11 9 -24 -1 -10 -8 -13 -9 -9 -1 4
6 3 14 -2 17 -5 3 -11 -1 -15 -9 -3 -8 -12 -12 -20 -9 -8 3 -17 0 -22 -7 -5
-8 -3 -10 7 -5 8 4 5 0 -5 -8 -11 -9 -26 -17 -33 -17 -16 -2 -32 -6 -35 -9 -8
-7 -68 -6 -68 2 0 5 -4 6 -10 3 -5 -3 -10 0 -10 7 0 9 -3 9 -10 -2 -7 -11 -10
-11 -10 -2 0 8 -5 10 -12 6 -9 -5 -8 -2 1 9 12 15 12 17 -2 12 -20 -8 -57 24
-49 43 3 9 1 13 -5 9 -14 -9 -20 18 -17 73 5 63 6 70 16 64 4 -3 8 1 8 9 0 15
41 57 56 57 5 0 3 -4 -4 -9 -11 -7 -10 -9 3 -14 9 -4 14 -3 11 2 -3 4 2 17 10
27 9 10 13 13 9 7 -7 -15 11 -18 19 -4 9 13 83 5 109 -12 12 -8 26 -14 31 -15
4 0 17 -14 27 -31 10 -17 22 -31 26 -31 4 0 2 5 -5 12 -18 18 -15 25 18 32 23
4 30 11 30 28 0 21 0 21 16 2 15 -18 15 -18 5 2 -6 12 -7 24 -3 28 3 4 -2 4
-12 0 -13 -5 -17 -4 -13 3 4 6 0 14 -9 17 -14 5 -14 9 -3 24 13 15 12 16 -2 4
-14 -10 -23 -9 -55 10 -22 12 -40 26 -42 30 -2 4 -8 8 -13 8 -6 0 -8 -4 -5 -9
4 -5 -2 -8 -11 -6 -10 2 -22 4 -27 4 -4 1 -6 8 -2 16 3 8 3 15 0 15 -2 0 -7
-7 -10 -15z m176 -139 c0 -3 -4 -8 -10 -11 -5 -3 -10 -1 -10 4 0 6 5 11 10 11
6 0 10 -2 10 -4z"/>
<path d="M2475 1129 c-4 -6 -5 -12 -2 -15 2 -3 7 2 10 11 7 17 1 20 -8 4z"/>
<path d="M3644 1129 c-4 -7 -3 -9 4 -5 21 13 22 -13 0 -28 -16 -12 -25 -13
-35 -4 -7 6 -16 8 -20 4 -3 -3 -1 -6 5 -6 22 0 12 -20 -13 -26 -14 -3 -22 -11
-18 -17 3 -5 1 -7 -4 -4 -6 4 -21 -14 -34 -38 -19 -35 -28 -44 -44 -40 -11 3
-14 2 -7 -1 6 -3 9 -11 6 -16 -4 -7 -2 -8 4 -4 20 12 13 -5 -10 -23 -16 -14
-18 -20 -8 -26 8 -5 11 -4 6 3 -3 6 -2 13 4 17 5 3 10 -1 10 -9 0 -8 -5 -18
-10 -21 -6 -4 -7 -12 -3 -18 14 -22 11 -57 -5 -68 -15 -9 -15 -10 -1 -6 16 5
39 -28 39 -55 0 -6 9 -19 20 -28 12 -11 17 -21 11 -24 -5 -4 -14 2 -20 11 -6
10 -10 14 -10 8 0 -5 6 -19 14 -29 8 -11 15 -14 15 -8 0 7 5 12 11 12 5 0 7
-5 3 -12 -5 -8 -1 -9 12 -5 18 7 18 6 -1 -9 -14 -12 -15 -15 -4 -11 9 3 22 0
29 -6 10 -9 11 -9 6 1 -4 6 -2 12 3 12 6 0 11 -7 11 -15 0 -9 6 -15 13 -14 30
4 45 -3 56 -23 6 -13 9 -15 7 -5 -7 24 8 21 28 -6 16 -21 16 -21 6 -1 -9 21
-7 22 33 19 23 -1 47 2 54 7 15 12 36 0 26 -15 -5 -8 -2 -8 9 0 8 7 19 9 23 5
5 -4 5 -1 1 6 -4 7 -12 10 -17 7 -5 -4 -9 -1 -9 5 0 7 11 9 28 7 18 -3 36 2
51 14 13 11 19 19 14 19 -5 0 -14 -5 -21 -12 -15 -15 -42 -19 -42 -7 0 5 7 9
15 9 9 0 18 6 21 14 5 13 40 30 57 27 5 -1 6 3 2 9 -5 8 -12 7 -23 -2 -12 -9
-11 -6 2 10 15 17 22 19 28 10 6 -9 7 -6 3 8 -3 11 1 36 9 55 7 19 12 51 10
72 -2 23 0 36 6 32 6 -4 7 -11 4 -17 -4 -7 -2 -8 4 -4 13 8 5 36 -11 36 -7 0
-7 4 1 12 15 15 15 28 1 28 -5 0 -7 -4 -4 -10 3 -5 4 -10 1 -10 -4 0 -46 87
-46 96 0 2 8 1 18 -3 10 -3 6 2 -8 13 -14 10 -29 18 -33 16 -5 -1 -5 8 -2 20
7 22 6 22 -7 4 -12 -15 -17 -16 -23 -6 -5 9 -4 15 3 18 7 2 12 8 12 14 0 6 -8
4 -18 -5 -23 -21 -49 -3 -31 20 7 8 8 13 1 13 -5 0 -13 -7 -16 -16 -4 -9 -11
-12 -18 -7 -7 4 -16 8 -20 8 -3 0 -10 4 -15 9 -5 5 -3 6 4 2 9 -5 11 -2 7 9
-6 14 -8 14 -18 0 -13 -18 -97 -15 -120 4 -11 9 -16 9 -22 0z m301 -99 c3 -5
1 -10 -4 -10 -6 0 -11 5 -11 10 0 6 2 10 4 10 3 0 8 -4 11 -10z m-194 -23 c-6
-6 -11 -15 -11 -20 0 -5 7 -1 16 7 8 9 21 16 27 16 21 0 40 -17 33 -29 -5 -7
-1 -9 11 -5 17 5 17 5 0 -9 -16 -13 -16 -15 -2 -21 9 -3 14 -2 11 3 -3 5 1 11
9 15 10 3 20 -7 31 -30 15 -31 15 -37 3 -45 -12 -8 -7 -13 12 -11 3 1 3 -13 1
-30 -3 -21 -7 -26 -13 -17 -7 11 -9 10 -9 -3 0 -10 5 -18 10 -18 7 0 7 -6 0
-19 -7 -13 -17 -18 -32 -14 -22 5 -22 5 -4 -9 18 -14 18 -15 -4 -31 -19 -13
-27 -14 -39 -4 -12 10 -14 9 -8 -5 3 -10 2 -20 -2 -23 -5 -3 -12 2 -15 11 -4
9 -9 14 -13 11 -3 -4 -14 -2 -24 3 -10 6 -20 6 -23 2 -3 -5 1 -9 9 -10 8 -1
22 -3 30 -4 8 -1 12 -5 9 -9 -2 -4 -14 -5 -27 -3 -12 3 -32 7 -43 9 -63 9
-113 82 -108 154 5 70 71 148 112 134 6 -3 9 -10 5 -16 -4 -7 1 -6 10 2 18 14
23 26 8 16 -5 -3 -12 -2 -14 2 -3 5 8 9 25 10 21 0 27 -2 19 -10z"/>
<path d="M3645 967 c-30 -26 -36 -35 -24 -42 8 -4 11 -4 6 0 -9 10 22 47 34
39 5 -3 9 0 9 6 0 6 4 9 8 6 5 -3 9 1 9 9 0 19 3 20 -42 -18z"/>
<path d="M3776 992 c-3 -5 1 -9 9 -9 8 0 12 4 9 9 -3 4 -7 8 -9 8 -2 0 -6 -4
-9 -8z"/>
<path d="M3866 917 c3 -10 9 -15 12 -12 3 3 0 11 -7 18 -10 9 -11 8 -5 -6z"/>
<path d="M3610 805 c13 -14 27 -25 32 -25 5 0 -3 11 -18 25 -15 14 -29 25 -32
25 -3 0 5 -11 18 -25z"/>
<path d="M3634 756 c24 -19 36 -20 36 -4 0 6 -3 8 -6 5 -4 -3 -16 -2 -28 4
-20 10 -20 10 -2 -5z"/>
<path d="M3816 744 c-6 -15 -4 -15 11 -3 10 7 20 15 22 16 2 2 -3 3 -11 3 -9
0 -19 -7 -22 -16z"/>
<path d="M3750 1130 c-13 -8 -12 -10 3 -10 9 0 17 5 17 10 0 12 -1 12 -20 0z"/>
<path d="M4180 1129 c0 -5 -5 -7 -12 -3 -7 4 -8 3 -4 -4 5 -8 0 -12 -13 -12
-10 0 -21 3 -24 8 -2 4 -3 3 -2 -3 1 -5 -14 -23 -34 -40 -20 -16 -30 -22 -22
-12 9 11 10 17 2 17 -6 0 -12 -6 -12 -12 -1 -7 -3 -20 -4 -28 -1 -8 -3 -23 -4
-33 0 -10 -5 -16 -9 -13 -4 2 -9 -5 -9 -17 -2 -17 0 -19 7 -7 8 12 10 11 10
-7 0 -12 -6 -24 -12 -27 -7 -3 -2 -3 12 1 23 5 24 5 10 -12 -8 -11 -10 -16 -3
-12 7 5 32 -12 63 -42 46 -45 65 -71 40 -56 -5 3 -10 1 -10 -4 0 -14 17 -14
25 -1 3 6 17 0 32 -14 26 -25 36 -66 19 -78 -14 -10 -48 11 -40 24 5 7 2 8 -5
4 -9 -6 -8 -13 5 -27 16 -17 16 -19 1 -19 -10 0 -17 5 -17 11 0 5 -5 7 -12 3
-7 -5 -9 -2 -5 9 4 11 2 14 -7 11 -7 -3 -19 3 -27 13 -13 16 -12 17 4 4 11 -9
17 -10 17 -2 0 6 -3 11 -7 12 -5 0 -24 2 -43 4 -23 3 -29 1 -16 -4 14 -5 16
-10 8 -15 -7 -4 -12 -4 -12 -1 0 3 -10 -3 -22 -14 -11 -11 -24 -18 -28 -16 -4
2 -7 -2 -7 -9 0 -8 7 -12 15 -8 9 3 13 1 9 -5 -4 -6 0 -13 8 -17 8 -3 15 -11
15 -17 0 -7 -10 -5 -27 5 l-28 17 25 -22 c14 -12 24 -26 22 -30 -1 -5 3 -9 9
-9 6 0 9 7 6 14 -4 10 -1 13 9 9 7 -3 14 -9 14 -14 0 -5 9 -9 20 -9 11 0 20
-4 20 -9 0 -5 9 -7 20 -4 15 4 20 0 21 -13 0 -18 1 -18 8 1 8 19 8 19 20 0 10
-16 11 -16 7 -2 -3 11 0 17 9 17 8 0 15 -5 15 -12 0 -6 6 -4 13 7 9 11 19 15
27 10 9 -5 11 -4 6 3 -10 16 6 15 24 0 12 -11 12 -10 1 4 -11 14 -10 21 6 42
10 14 25 26 33 26 9 0 11 3 5 8 -14 10 -17 32 -5 32 6 0 10 5 10 11 0 5 -4 7
-10 4 -15 -9 -12 4 4 20 7 8 17 11 22 7 5 -4 2 1 -5 11 -14 18 -26 24 -16 8 3
-5 1 -12 -5 -16 -5 -3 -10 3 -10 14 0 10 3 21 8 24 4 2 1 2 -6 1 -18 -5 -28
26 -11 37 8 5 9 9 3 9 -5 0 -14 -4 -20 -9 -13 -13 -149 113 -150 139 -1 11 2
20 7 20 4 0 15 3 25 7 12 4 15 3 9 -6 -4 -7 -2 -24 5 -37 10 -18 16 -21 26
-13 7 6 10 18 7 27 -3 11 1 8 11 -5 18 -24 63 -28 63 -6 0 10 -4 10 -11 3 -5
-5 -15 -10 -20 -10 -6 1 0 10 13 21 19 16 26 17 33 7 6 -8 7 -4 3 12 -6 20 -5
23 6 13 7 -7 18 -13 24 -13 5 0 3 5 -7 10 -10 6 -15 20 -14 35 2 13 -1 22 -6
19 -5 -3 -7 -12 -4 -20 3 -8 1 -14 -4 -14 -6 0 -10 7 -10 16 0 8 -14 20 -30
26 -25 8 -28 13 -19 24 8 9 8 14 1 14 -6 0 -14 -5 -17 -11 -5 -6 -11 -4 -19 7
-9 12 -15 14 -20 6 -10 -17 -26 -15 -20 3 4 8 3 15 0 15 -3 0 -6 -5 -6 -11z
m44 -158 c-9 -10 -26 18 -18 30 5 9 9 8 14 -7 4 -10 6 -21 4 -23z"/>
<path d="M1562 1114 c10 -10 20 -16 22 -13 3 3 -5 11 -17 18 -21 13 -21 12 -5
-5z"/>
<path d="M1828 1123 c7 -3 16 -2 19 1 4 3 -2 6 -13 5 -11 0 -14 -3 -6 -6z"/>
<path d="M1867 1114 c3 -9 -3 -13 -19 -12 -12 0 -27 0 -33 -1 -6 0 -10 -40 -9
-96 0 -52 -3 -90 -8 -83 -5 10 -8 8 -8 -4 0 -10 6 -18 13 -18 8 0 7 -4 -3 -10
-10 -6 -11 -10 -2 -10 19 0 14 -28 -5 -33 -15 -4 -16 -5 -2 -6 12 -1 16 -10
16 -35 -1 -19 -5 -32 -9 -30 -4 3 -8 0 -8 -5 0 -6 5 -11 10 -11 6 0 10 -5 10
-11 0 -5 -4 -7 -10 -4 -5 3 -10 1 -10 -4 0 -6 5 -11 10 -11 6 0 10 -5 10 -11
0 -6 -8 -8 -17 -5 -16 5 -16 5 -3 -6 19 -16 22 -88 4 -81 -6 2 -15 0 -18 -5
-3 -5 10 -8 29 -6 28 2 33 -1 28 -14 -5 -14 -3 -13 9 2 12 15 18 16 35 7 16
-8 24 -7 33 4 7 8 16 12 21 9 5 -3 6 2 3 10 -3 9 -10 16 -16 16 -5 0 -7 -4 -4
-9 3 -5 -2 -15 -12 -22 -15 -12 -16 -12 -6 1 5 8 10 26 9 40 -1 30 14 43 32
28 9 -7 18 -7 30 3 15 12 16 12 10 -3 -3 -10 -2 -18 3 -18 6 0 10 -5 10 -10 0
-7 -8 -7 -22 1 -18 9 -20 9 -12 0 6 -7 20 -14 30 -15 10 -2 20 -8 22 -14 2 -8
-3 -10 -14 -5 -16 6 -17 5 -4 -9 8 -9 17 -13 20 -9 8 10 63 11 75 1 9 -7 16
-6 24 4 9 11 7 22 -8 50 -12 20 -16 36 -11 36 6 0 10 4 10 10 0 5 -7 7 -15 4
-9 -4 -15 0 -15 10 0 9 -5 16 -11 16 -5 0 -7 5 -4 10 4 6 11 7 17 4 5 -4 4 4
-2 17 -18 33 -24 38 -16 12 6 -18 4 -22 -8 -17 -9 3 -16 10 -16 15 0 18 -2 24
-12 37 -6 6 -8 13 -4 13 3 1 10 2 15 3 10 1 72 66 63 66 -3 0 -1 5 6 12 15 15
16 32 2 23 -5 -3 -10 -4 -10 0 0 3 10 10 23 15 18 7 18 9 4 9 -10 1 -15 6 -12
11 3 6 1 10 -6 10 -8 0 -7 5 2 17 10 12 10 15 1 9 -7 -4 -11 -4 -10 1 1 4 -6
20 -16 36 -16 23 -16 30 -5 45 13 16 13 16 -7 -1 -23 -19 -34 -14 -35 17 0 16
-2 17 -7 6 -4 -8 -14 -14 -22 -14 -8 1 -23 2 -33 3 -12 1 -16 5 -11 14 6 9 4
9 -8 -1 -11 -9 -18 -10 -23 -2 -3 5 -12 10 -18 10 -7 0 -6 -4 3 -10 12 -7 10
-9 -8 -7 -12 1 -21 6 -18 12 2 7 -2 12 -9 12 -7 0 -11 -6 -8 -13z m88 -133 c5
-20 8 -22 16 -10 5 7 9 19 9 24 0 6 -5 3 -10 -5 -6 -9 -10 -10 -10 -3 0 19 17
24 30 8 7 -8 9 -15 4 -15 -5 0 -2 -5 6 -10 13 -8 13 -10 -2 -10 -9 0 -20 -5
-24 -12 -5 -8 -2 -9 9 -5 21 8 22 0 2 -19 -8 -9 -15 -11 -15 -5 0 6 -5 11 -11
11 -5 0 -7 -5 -3 -11 4 -7 -1 -7 -16 1 -15 8 -20 8 -16 1 4 -6 3 -11 -2 -11
-13 0 -24 44 -12 48 6 2 7 9 3 15 -14 23 -10 33 13 33 16 0 25 -7 29 -25z
m-31 -203 c-3 -5 1 -8 8 -8 8 -1 5 -7 -7 -17 -20 -15 -20 -15 2 -10 22 5 33
-8 33 -39 0 -12 -4 -13 -22 -3 -13 7 -24 11 -26 10 -2 -2 -6 0 -9 3 -4 3 -1 6
6 6 7 0 9 5 4 12 -4 7 -8 30 -9 51 -1 33 0 35 11 20 7 -10 11 -21 9 -25z"/>
<path d="M1935 973 c3 -3 -2 -11 -11 -17 -13 -10 -13 -12 4 -13 19 -2 25 20 9
32 -4 3 -5 2 -2 -2z"/>
<path d="M1935 720 c3 -5 8 -10 11 -10 2 0 4 5 4 10 0 6 -5 10 -11 10 -5 0 -7
-4 -4 -10z"/>
<path d="M1995 1120 c-4 -6 -11 -7 -17 -4 -7 4 -8 2 -4 -4 7 -12 36 -5 36 9 0
12 -7 11 -15 -1z"/>
<path d="M2733 1117 c1 -8 -10 -11 -33 -10 -19 0 -27 -1 -17 -4 9 -2 14 -9 11
-15 -4 -7 -2 -8 4 -4 16 10 15 -7 0 -23 -9 -10 -9 -12 -1 -7 8 5 12 -8 11 -43
0 -32 -4 -49 -11 -47 -7 2 -9 1 -4 -1 4 -3 4 -10 1 -15 -4 -7 -2 -8 4 -4 7 4
12 3 12 -3 0 -5 -6 -12 -12 -14 -10 -4 -10 -6 0 -6 7 -1 12 -16 12 -41 0 -30
-3 -38 -14 -34 -8 3 -17 1 -20 -4 -3 -5 2 -9 12 -8 14 1 17 -9 19 -56 2 -33
-2 -58 -7 -58 -6 0 -10 -5 -10 -11 0 -5 5 -7 10 -4 6 3 10 2 10 -4 0 -5 -6
-12 -12 -14 -10 -4 -10 -6 0 -6 6 -1 12 -8 12 -17 0 -8 -4 -12 -10 -9 -5 3
-10 1 -10 -4 0 -6 5 -11 11 -11 8 0 7 -5 -1 -15 -11 -13 -10 -14 5 -9 14 6 16
4 10 -6 -5 -8 -4 -11 3 -6 5 3 12 3 15 -1 2 -5 2 -2 1 5 -2 6 5 12 16 12 18 0
25 -11 21 -33 -1 -5 3 -6 8 -2 6 3 7 13 4 21 -5 14 -3 15 15 5 15 -8 23 -8 28
1 4 7 3 8 -4 4 -8 -5 -12 5 -12 34 0 30 3 39 13 34 6 -4 9 -3 4 1 -4 5 1 17
10 27 16 18 16 18 0 12 -9 -3 -17 -10 -17 -15 0 -5 -4 -9 -9 -9 -10 0 -3 39
11 57 6 7 4 14 -3 19 -8 5 -9 3 -4 -6 5 -8 4 -11 -2 -7 -5 3 -8 19 -5 35 3 27
6 28 52 28 30 0 46 -4 43 -11 -3 -5 0 -4 8 3 19 17 29 15 23 -5 -5 -17 -4 -17
9 0 9 11 18 14 21 8 4 -5 2 -13 -4 -16 -8 -5 -7 -11 1 -21 9 -11 9 -14 -1 -14
-10 0 -10 -3 -1 -14 9 -11 9 -16 0 -22 -8 -5 -9 -3 -4 6 6 9 4 11 -4 6 -9 -6
-8 -13 5 -27 18 -20 6 -27 -14 -7 -7 7 -12 8 -12 4 0 -4 10 -17 23 -27 l22
-20 -22 6 c-14 4 -23 2 -23 -5 0 -6 4 -9 9 -6 5 3 15 -2 22 -11 10 -12 10 -14
2 -9 -7 4 -13 2 -13 -4 0 -6 7 -13 15 -16 8 -4 12 -11 8 -18 -3 -6 -1 -6 8 2
17 16 49 16 49 0 0 -10 3 -9 9 1 5 7 13 11 19 7 7 -4 9 9 5 36 -4 35 -2 40 10
30 11 -9 14 -9 14 3 0 7 -5 13 -11 12 -18 -4 -18 34 1 56 13 16 14 18 2 9 -14
-10 -18 -10 -22 2 -4 9 -1 18 5 22 7 5 8 2 3 -6 -5 -9 -4 -11 3 -6 9 5 9 13 2
26 -15 29 -13 55 3 41 10 -8 14 -7 14 4 0 7 -5 13 -11 12 -18 -4 -18 34 1 56
13 16 14 18 2 9 -14 -10 -18 -10 -22 2 -4 9 -1 18 5 22 7 5 8 2 3 -6 -5 -9 -4
-11 3 -6 9 5 9 13 2 26 -13 24 -13 53 -1 45 5 -3 13 -1 16 5 4 6 1 9 -6 8 -6
-2 -14 3 -17 11 -3 9 0 11 9 6 11 -6 12 -5 2 6 -15 15 -18 53 -4 44 5 -3 13
-1 16 5 4 6 1 9 -7 8 -7 -2 -12 3 -10 11 2 11 0 12 -10 4 -18 -15 -67 -10 -80
7 -8 12 -9 12 -4 -2 3 -10 1 -18 -5 -18 -6 0 -7 -4 -4 -10 3 -5 1 -10 -5 -10
-6 0 -9 -4 -5 -9 3 -6 -3 -15 -12 -21 -16 -10 -16 -11 -1 -6 20 6 34 -10 16
-17 -10 -4 -9 -8 2 -16 11 -8 12 -11 2 -11 -7 0 -11 -4 -8 -9 4 -5 0 -12 -6
-14 -8 -3 -6 -6 5 -6 10 -1 15 -6 12 -11 -4 -6 -11 -8 -16 -5 -5 4 -9 1 -9 -4
0 -6 8 -11 17 -11 9 0 13 -3 9 -7 -12 -13 -80 -12 -95 1 -11 8 -13 8 -8 -1 5
-8 0 -11 -13 -10 -22 1 -27 13 -8 19 7 3 5 7 -6 11 -9 4 -15 3 -12 -1 2 -4 1
-14 -5 -22 -6 -11 -9 -4 -9 23 0 28 3 36 13 31 6 -4 5 1 -4 12 -11 12 -14 26
-9 39 4 11 3 28 -2 39 -7 12 -7 16 0 12 5 -3 12 0 15 8 6 16 -1 26 -17 26 -6
0 -4 -5 4 -10 13 -8 12 -10 -2 -10 -10 0 -18 5 -18 10 0 6 -5 10 -11 10 -5 0
-8 -4 -5 -8 2 -4 -5 -9 -17 -9 -15 -2 -18 0 -9 6 11 7 11 9 -2 14 -9 4 -15 1
-13 -6z"/>
<path d="M2996 1122 c-3 -5 1 -9 9 -9 8 0 12 4 9 9 -3 4 -7 8 -9 8 -2 0 -6 -4
-9 -8z"/>
<path d="M3215 1121 c8 -14 -14 -24 -28 -13 -14 11 -48 12 -41 1 2 -5 12 -6
22 -3 16 5 16 5 0 -6 -10 -6 -15 -17 -11 -26 3 -8 -2 -21 -12 -28 -14 -10 -15
-15 -5 -21 9 -5 11 -4 6 3 -4 7 -1 12 9 12 17 0 14 -12 -13 -42 -8 -10 -10
-18 -4 -18 6 0 12 6 15 13 2 6 8 9 11 5 4 -3 -2 -16 -14 -28 l-22 -22 24 7
c22 6 22 6 4 -9 -17 -14 -17 -16 -3 -16 11 0 14 -5 10 -17 -4 -11 -8 -13 -11
-5 -2 7 -8 9 -14 6 -6 -4 -1 -12 12 -19 21 -11 21 -12 4 -30 -21 -20 -27 -45
-12 -45 6 0 8 7 4 15 -3 9 0 15 9 15 18 0 9 -29 -14 -49 -14 -11 -13 -12 9 -7
24 7 24 6 6 -8 -17 -14 -17 -16 -3 -16 11 0 14 -5 10 -17 -4 -11 -8 -13 -11
-5 -2 7 -8 9 -14 6 -6 -4 -1 -12 12 -19 21 -11 21 -12 4 -30 -25 -24 -26 -43
-3 -50 11 -4 17 -10 14 -15 -3 -5 -12 -7 -20 -3 -8 3 -15 0 -15 -6 0 -6 3 -10
8 -10 25 4 42 -2 36 -13 -6 -10 -4 -10 8 0 14 11 18 10 28 -5 10 -16 11 -16 6
0 -4 12 0 17 14 17 18 0 25 -11 21 -33 -1 -5 3 -6 8 -2 6 3 7 13 4 21 -5 14
-3 15 17 4 12 -7 20 -8 16 -2 -3 6 12 9 42 7 26 -1 59 1 74 6 22 6 26 4 21 -9
-4 -14 -3 -15 5 -2 8 10 7 19 -1 29 -9 11 -9 15 1 18 6 3 12 9 12 14 0 6 -4 8
-8 5 -13 -8 -11 28 2 37 6 4 0 7 -14 5 -16 -2 -24 2 -22 10 1 6 -3 12 -9 12
-6 0 -9 -6 -6 -14 6 -16 -28 -17 -52 -1 -9 5 -12 4 -8 -2 4 -7 -10 -10 -37 -9
-31 0 -42 4 -39 13 3 7 9 11 13 8 5 -3 12 0 16 6 4 7 3 10 -2 7 -5 -3 -15 0
-22 8 -11 12 -9 14 10 15 23 0 23 0 2 9 -17 7 -20 14 -16 36 5 27 5 27 13 6
10 -27 23 -29 14 -2 -7 21 10 28 18 8 4 -10 6 -10 6 0 1 18 19 15 24 -5 4 -16
5 -16 6 -1 1 19 37 21 60 4 11 -8 13 -8 7 2 -4 6 -3 12 3 12 5 0 12 -6 14 -12
3 -8 6 -6 6 5 1 9 6 17 12 17 6 0 9 -6 6 -13 -3 -8 4 -14 16 -15 12 0 17 2 12
6 -6 4 -10 19 -10 34 1 19 -5 30 -17 34 -19 6 -25 34 -7 34 5 0 7 -6 3 -12 -5
-9 -2 -9 9 1 9 7 17 19 16 25 0 6 -3 6 -6 -2 -4 -10 -11 -9 -31 4 -20 13 -24
13 -15 3 11 -13 6 -15 -37 -15 -34 0 -50 5 -50 13 0 7 -4 13 -10 13 -5 0 -7
-6 -4 -13 3 -8 -2 -14 -11 -14 -8 0 -15 4 -15 9 0 4 -5 8 -11 8 -5 0 -7 -4 -4
-10 3 -5 0 -7 -8 -4 -9 3 -14 17 -12 37 2 30 4 31 51 32 41 0 49 -3 48 -17 -1
-10 3 -15 8 -12 5 3 7 12 4 19 -4 10 5 13 34 10 29 -3 38 0 34 10 -3 7 3 15
13 18 17 4 17 5 -1 6 -12 1 -16 6 -12 16 7 20 -10 65 -26 65 -9 0 -8 -3 2 -10
13 -8 12 -10 -2 -10 -10 0 -18 6 -18 13 0 8 -4 7 -10 -3 -6 -10 -10 -11 -10
-2 0 6 -8 12 -17 12 -13 0 -14 -3 -6 -8 7 -4 -7 -8 -32 -9 -25 -1 -45 3 -45 8
0 5 -5 9 -11 9 -5 0 -8 -4 -5 -8 2 -4 -5 -9 -17 -9 -15 -2 -18 0 -9 6 11 7 10
10 -3 14 -9 4 -13 3 -10 -2z m238 -250 c3 -13 0 -18 -7 -15 -7 3 -13 11 -13
19 0 22 14 18 20 -4z m-289 -196 c-4 -8 -7 -15 -9 -15 -2 0 -5 7 -9 15 -3 9 0
15 9 15 9 0 12 -6 9 -15z"/>
<path d="M1465 1110 c-4 -6 -13 -9 -21 -6 -17 7 -19 -10 -1 -18 9 -3 7 -9 -5
-19 -20 -16 -25 -32 -6 -21 7 4 8 3 4 -5 -4 -6 -11 -9 -16 -6 -4 3 -14 -3 -21
-13 -13 -15 -12 -16 3 -4 11 9 18 10 23 2 3 -5 1 -10 -4 -10 -6 0 -11 -9 -11
-20 0 -11 -5 -20 -11 -20 -6 0 -8 7 -4 18 5 14 4 15 -6 5 -9 -9 -10 -16 -2
-24 14 -14 4 -52 -13 -45 -7 3 -16 0 -20 -6 -4 -6 -3 -8 3 -5 6 4 14 0 17 -9
5 -12 2 -15 -10 -10 -14 5 -15 4 -5 -8 12 -14 11 -18 -16 -65 -2 -2 -9 2 -17
8 -11 9 -16 9 -22 0 -4 -7 -3 -9 3 -6 6 4 16 1 22 -6 7 -10 2 -34 -20 -93 -17
-43 -36 -85 -41 -91 -7 -9 -7 -13 1 -13 7 0 9 -5 5 -12 -4 -6 -3 -8 4 -4 5 3
12 3 15 -1 2 -5 2 -2 1 5 -2 6 5 12 16 12 18 0 25 -11 21 -33 -1 -5 3 -6 8 -2
6 3 7 13 4 21 -5 14 -3 15 15 5 19 -10 21 -9 15 6 -5 15 -3 16 8 6 7 -7 18
-13 24 -13 6 0 6 3 -2 8 -17 11 -19 34 -4 69 12 29 15 31 28 17 9 -8 18 -12
21 -9 4 3 0 10 -7 14 -11 7 124 9 162 2 11 -2 -2 -21 -14 -21 -6 0 -7 5 -3 12
4 7 3 8 -5 4 -15 -10 -3 -29 15 -22 17 6 39 -30 24 -39 -5 -3 -16 -3 -22 0 -7
4 -4 -1 6 -9 11 -9 16 -16 11 -16 -5 0 -4 -5 3 -12 7 -7 15 -8 24 -1 17 12 71
16 64 4 -4 -5 2 -8 11 -6 10 2 21 4 26 4 4 1 1 13 -6 29 -8 15 -12 33 -9 41 3
8 0 11 -7 7 -6 -4 -11 0 -11 9 0 9 5 13 10 10 6 -3 10 -1 10 4 0 6 -7 11 -15
11 -8 0 -18 12 -21 28 -4 15 -10 32 -14 37 -15 21 -19 45 -8 51 6 4 8 3 5 -3
-3 -5 0 -10 8 -10 11 0 12 4 4 13 -6 7 -17 10 -25 7 -8 -3 -14 -1 -15 3 -2 22
-8 42 -24 79 -22 49 -26 67 -14 59 5 -3 6 -11 3 -17 -4 -7 -3 -9 1 -4 5 4 9
16 10 26 1 13 -4 17 -17 13 -13 -3 -18 1 -18 17 0 11 -5 21 -12 21 -6 0 -8 3
-5 7 4 3 2 12 -5 20 -9 11 -7 12 8 7 13 -4 11 -1 -6 12 -14 10 -28 23 -32 28
-5 7 -8 7 -8 -1 0 -7 -5 -13 -11 -13 -5 0 -7 6 -3 13 6 9 5 9 -7 0 -11 -9 -19
-9 -26 -2 -8 8 -13 7 -18 -1z m40 -160 c-3 -5 -2 -10 3 -10 6 0 12 -7 15 -14
4 -11 1 -13 -10 -9 -10 4 -14 2 -10 -4 4 -6 1 -14 -5 -17 -7 -3 -3 -3 9 0 16
3 25 -1 33 -17 8 -15 9 -19 1 -15 -6 4 -11 3 -11 -2 0 -6 7 -13 16 -16 25 -10
10 -30 -24 -32 -21 -1 -29 2 -25 10 4 6 -1 5 -10 -2 -9 -8 -21 -11 -27 -7 -13
8 -13 25 1 25 5 0 7 -5 3 -12 -4 -7 -3 -8 5 -4 9 6 9 11 0 22 -9 11 -9 14 1
14 8 0 11 3 7 6 -3 4 0 22 8 40 8 19 12 34 9 34 -3 0 -2 5 1 10 3 6 8 10 11
10 3 0 2 -4 -1 -10z m135 -325 c0 -8 -4 -15 -8 -15 -5 0 -9 7 -9 15 0 8 4 15
9 15 4 0 8 -7 8 -15z"/>
<path d="M1515 880 c-3 -5 -11 -8 -18 -6 -7 1 -9 1 -4 -1 4 -3 7 -9 7 -14 0
-6 -5 -7 -12 -3 -7 4 -8 3 -4 -4 10 -16 11 -16 30 13 9 14 14 25 12 25 -3 0
-7 -4 -11 -10z"/>
<path d="M1510 835 c0 -7 30 -13 34 -7 3 4 -4 9 -15 9 -10 1 -19 0 -19 -2z"/>
<path d="M2290 1105 c0 -8 2 -15 4 -15 2 0 6 7 10 15 3 8 1 15 -4 15 -6 0 -10
-7 -10 -15z"/>
<path d="M2530 1114 c0 -2 9 -8 20 -14 11 -6 20 -7 20 -2 0 6 -9 12 -20 15
-11 3 -20 3 -20 1z"/>
<path d="M3623 1105 c0 -7 6 -11 14 -8 7 3 13 6 13 8 0 2 -6 5 -13 8 -8 3 -14
-1 -14 -8z"/>
<path d="M2940 1101 c0 -7 -5 -9 -12 -5 -7 5 -8 3 -3 -5 5 -9 10 -10 18 -2 6
6 8 14 4 18 -4 3 -7 1 -7 -6z"/>
<path d="M4077 1093 c3 -7 6 -13 8 -13 2 0 5 6 8 13 3 8 -1 14 -8 14 -7 0 -11
-6 -8 -14z"/>
<path d="M2590 1090 c-9 -6 -10 -10 -3 -10 6 0 15 5 18 10 8 12 4 12 -15 0z"/>
<path d="M3545 1074 c-10 -8 -14 -14 -8 -14 7 0 14 4 18 10 3 5 12 7 20 3 8
-3 15 -3 15 0 0 13 -28 13 -45 1z"/>
<path d="M1780 1070 c0 -5 5 -10 10 -10 6 0 10 5 10 10 0 6 -4 10 -10 10 -5 0
-10 -4 -10 -10z"/>
<path d="M2075 1060 c3 -5 8 -10 11 -10 2 0 4 5 4 10 0 6 -5 10 -11 10 -5 0
-7 -4 -4 -10z"/>
<path d="M2230 1059 c0 -5 5 -7 10 -4 6 3 10 8 10 11 0 2 -4 4 -10 4 -5 0 -10
-5 -10 -11z"/>
<path d="M1590 1051 c0 -6 4 -12 8 -15 5 -3 9 1 9 9 0 8 -4 15 -9 15 -4 0 -8
-4 -8 -9z"/>
<path d="M2202 1035 c-17 -37 -14 -45 4 -12 9 16 14 31 11 33 -2 2 -9 -7 -15
-21z"/>
<path d="M2620 1056 c0 -7 40 -14 44 -7 3 4 -6 8 -20 9 -13 1 -24 0 -24 -2z"/>
<path d="M1783 1025 c0 -8 4 -12 9 -9 5 3 6 10 3 15 -9 13 -12 11 -12 -6z"/>
<path d="M2090 1036 c0 -2 7 -7 16 -10 8 -3 12 -2 9 4 -6 10 -25 14 -25 6z"/>
<path d="M2685 1030 c-3 -5 -1 -10 4 -10 6 0 11 5 11 10 0 6 -2 10 -4 10 -3 0
-8 -4 -11 -10z"/>
<path d="M4030 1020 c-9 -6 -10 -10 -3 -10 6 0 15 5 18 10 8 12 4 12 -15 0z"/>
<path d="M2830 1011 c0 -6 4 -13 10 -16 6 -3 7 1 4 9 -7 18 -14 21 -14 7z"/>
<path d="M2426 993 c-6 -14 -5 -15 5 -6 7 7 10 15 7 18 -3 3 -9 -2 -12 -12z"/>
<path d="M1776 988 c3 -5 10 -6 15 -3 13 9 11 12 -6 12 -8 0 -12 -4 -9 -9z"/>
<path d="M2173 993 c4 -3 -1 -16 -10 -27 -18 -21 -18 -21 4 -2 20 16 23 36 6
36 -4 0 -3 -3 0 -7z"/>
<path d="M2461 991 c-9 -6 -6 -8 13 -8 14 0 23 3 20 8 -7 11 -15 11 -33 0z"/>
<path d="M3270 982 c9 -19 30 -23 30 -5 0 4 -3 3 -7 0 -3 -4 -12 1 -20 11 -13
15 -13 15 -3 -6z"/>
<path d="M3320 990 c-9 -6 -10 -10 -3 -10 6 0 15 5 18 10 8 12 4 12 -15 0z"/>
<path d="M3487 989 c7 -7 15 -10 18 -7 3 3 -2 9 -12 12 -14 6 -15 5 -6 -5z"/>
<path d="M3970 991 c0 -6 4 -12 8 -15 5 -3 9 1 9 9 0 8 -4 15 -9 15 -4 0 -8
-4 -8 -9z"/>
<path d="M4165 990 c-3 -5 -1 -10 4 -10 6 0 11 5 11 10 0 6 -2 10 -4 10 -3 0
-8 -4 -11 -10z"/>
<path d="M2510 970 c0 -5 5 -10 11 -10 5 0 7 5 4 10 -3 6 -8 10 -11 10 -2 0
-4 -4 -4 -10z"/>
<path d="M2313 963 c-18 -7 -16 -20 2 -20 8 0 12 4 9 8 -2 4 2 10 8 12 7 3 9
5 3 5 -5 0 -16 -2 -22 -5z"/>
<path d="M2910 955 c-7 -9 -11 -17 -9 -20 3 -2 10 5 17 15 14 24 10 26 -8 5z"/>
<path d="M4182 956 c7 -8 15 -12 17 -11 5 6 -10 25 -20 25 -5 0 -4 -6 3 -14z"/>
<path d="M1631 943 c7 -12 15 -20 18 -17 3 2 -3 12 -13 22 -17 16 -18 16 -5
-5z"/>
<path d="M2535 950 c-3 -5 -1 -10 4 -10 6 0 11 5 11 10 0 6 -2 10 -4 10 -3 0
-8 -4 -11 -10z"/>
<path d="M4227 945 c-18 -13 -17 -14 8 -31 21 -14 28 -15 38 -4 8 9 9 11 0 6
-14 -8 -43 3 -43 16 0 5 4 7 9 3 5 -3 12 -1 15 4 10 16 -8 20 -27 6z"/>
<path d="M2136 903 c-6 -14 -5 -15 5 -6 7 7 10 15 7 18 -3 3 -9 -2 -12 -12z"/>
<path d="M2281 907 c-8 -10 -7 -14 2 -14 8 0 14 6 14 14 0 7 -1 13 -2 13 -2 0
-8 -6 -14 -13z"/>
<path d="M4073 884 c0 -19 2 -22 8 -13 8 13 13 5 10 -13 0 -5 4 -8 9 -8 15 0
12 9 -9 36 l-18 24 0 -26z"/>
<path d="M3080 890 c-8 -5 -12 -12 -9 -15 4 -3 12 1 19 10 14 17 11 19 -10 5z"/>
<path d="M2140 880 c-9 -6 -10 -10 -3 -10 6 0 15 5 18 10 8 12 4 12 -15 0z"/>
<path d="M4268 883 c7 -3 16 -2 19 1 4 3 -2 6 -13 5 -11 0 -14 -3 -6 -6z"/>
<path d="M1330 876 c0 -2 7 -7 16 -10 8 -3 12 -2 9 4 -6 10 -25 14 -25 6z"/>
<path d="M1655 870 c-3 -5 -1 -10 4 -10 6 0 11 5 11 10 0 6 -2 10 -4 10 -3 0
-8 -4 -11 -10z"/>
<path d="M2076 865 c-9 -26 -7 -32 5 -12 6 10 9 21 6 23 -2 3 -7 -2 -11 -11z"/>
<path d="M2279 873 c-5 -29 -5 -53 -1 -48 7 6 12 55 6 55 -2 0 -5 -3 -5 -7z"/>
<path d="M4290 870 c-9 -6 -10 -10 -3 -10 6 0 15 5 18 10 8 12 4 12 -15 0z"/>
<path d="M2091 834 c0 -11 3 -14 6 -6 3 7 2 16 -1 19 -3 4 -6 -2 -5 -13z"/>
<path d="M4115 839 c-4 -6 -5 -12 -2 -15 2 -3 7 2 10 11 7 17 1 20 -8 4z"/>
<path d="M2040 825 c-7 -9 -8 -15 -2 -15 5 0 12 7 16 15 3 8 4 15 2 15 -2 0
-9 -7 -16 -15z"/>
<path d="M2140 830 c0 -5 5 -10 11 -10 5 0 7 5 4 10 -3 6 -8 10 -11 10 -2 0
-4 -4 -4 -10z"/>
<path d="M1786 807 c3 -10 9 -15 12 -12 3 3 0 11 -7 18 -10 9 -11 8 -5 -6z"/>
<path d="M2684 809 c-3 -6 -2 -15 3 -20 5 -5 9 -1 9 11 0 23 -2 24 -12 9z"/>
<path d="M2820 815 c0 -5 5 -17 10 -25 5 -8 10 -10 10 -5 0 6 -5 17 -10 25 -5
8 -10 11 -10 5z"/>
<path d="M2873 805 c0 -8 4 -12 9 -9 5 3 6 10 3 15 -9 13 -12 11 -12 -6z"/>
<path d="M2587 789 c7 -7 15 -10 18 -7 3 3 -2 9 -12 12 -14 6 -15 5 -6 -5z"/>
<path d="M2312 781 c-11 -7 -11 -9 0 -14 9 -3 15 1 15 9 0 8 -1 14 -1 14 -1 0
-7 -4 -14 -9z"/>
<path d="M2937 783 c-4 -3 -7 -11 -7 -17 0 -6 5 -5 12 2 6 6 9 14 7 17 -3 3
-9 2 -12 -2z"/>
<path d="M4197 783 c-3 -5 1 -21 9 -38 11 -24 12 -25 7 -5 -3 14 -6 31 -6 38
0 14 -4 15 -10 5z"/>
<path d="M1296 772 c-2 -4 -1 -14 4 -22 7 -11 9 -9 7 8 -1 24 -3 26 -11 14z"/>
<path d="M2506 768 c3 -5 10 -6 15 -3 13 9 11 12 -6 12 -8 0 -12 -4 -9 -9z"/>
<path d="M3466 768 c3 -5 10 -6 15 -3 13 9 11 12 -6 12 -8 0 -12 -4 -9 -9z"/>
<path d="M2687 755 c-4 -8 -3 -16 1 -19 4 -3 9 4 9 15 2 23 -3 25 -10 4z"/>
<path d="M2150 753 c0 -7 4 -13 8 -13 5 0 14 -10 20 -22 6 -13 11 -18 11 -12
1 7 -8 22 -19 35 -10 13 -19 18 -20 12z"/>
<path d="M3491 744 c0 -11 3 -14 6 -6 3 7 2 16 -1 19 -3 4 -6 -2 -5 -13z"/>
<path d="M4032 744 c-7 -8 -8 -14 -3 -14 10 0 25 19 20 25 -2 1 -10 -3 -17
-11z"/>
<path d="M2404 729 c-4 -7 -3 -9 4 -5 5 3 13 0 15 -6 4 -9 6 -10 6 -1 1 17
-16 25 -25 12z"/>
<path d="M3080 730 c-8 -5 -12 -12 -9 -15 4 -3 12 1 19 10 14 17 11 19 -10 5z"/>
<path d="M3295 730 c-3 -5 -1 -10 4 -10 6 0 11 5 11 10 0 6 -2 10 -4 10 -3 0
-8 -4 -11 -10z"/>
<path d="M3990 729 c0 -5 5 -7 10 -4 6 3 10 8 10 11 0 2 -4 4 -10 4 -5 0 -10
-5 -10 -11z"/>
<path d="M1279 728 c-5 -9 -5 -48 -1 -43 6 6 11 45 5 45 -2 0 -4 -1 -4 -2z"/>
<path d="M2655 709 c-4 -6 -4 -13 -1 -16 3 -4 6 -1 6 6 0 7 5 9 12 5 7 -4 8
-3 4 4 -9 15 -13 15 -21 1z"/>
<path d="M1470 700 c0 -5 5 -10 11 -10 5 0 7 5 4 10 -3 6 -8 10 -11 10 -2 0
-4 -4 -4 -10z"/>
<path d="M1510 701 c0 -6 4 -12 8 -15 5 -3 9 1 9 9 0 8 -4 15 -9 15 -4 0 -8
-4 -8 -9z"/>
<path d="M2110 689 c0 -5 5 -7 10 -4 6 3 10 8 10 11 0 2 -4 4 -10 4 -5 0 -10
-5 -10 -11z"/>
<path d="M1405 680 c-3 -5 -3 -10 2 -10 4 0 1 -5 -7 -11 -10 -7 -11 -9 -2 -7
8 2 13 7 12 12 -1 5 4 13 12 17 9 6 9 9 1 9 -6 0 -15 -4 -18 -10z"/>
<path d="M1916 672 c-3 -5 1 -9 9 -9 8 0 12 4 9 9 -3 4 -7 8 -9 8 -2 0 -6 -4
-9 -8z"/>
<path d="M4330 670 c0 -5 5 -10 10 -10 6 0 10 5 10 10 0 6 -4 10 -10 10 -5 0
-10 -4 -10 -10z"/>
<path d="M1754 659 c-3 -6 -2 -15 3 -20 5 -5 9 -1 9 11 0 23 -2 24 -12 9z"/>
<path d="M1250 650 c0 -5 5 -10 11 -10 5 0 7 5 4 10 -3 6 -8 10 -11 10 -2 0
-4 -4 -4 -10z"/>
<path d="M2123 642 c10 -10 14 -22 10 -27 -5 -4 -2 -5 4 -1 10 5 10 11 0 26
-6 11 -16 20 -21 20 -5 0 -2 -8 7 -18z"/>
<path d="M4306 652 c-3 -5 1 -15 8 -21 11 -10 14 -9 12 3 -3 21 -13 29 -20 18z"/>
<path d="M2930 633 c0 -6 8 -17 18 -24 16 -13 16 -13 2 6 -8 11 -16 22 -17 24
-2 2 -3 0 -3 -6z"/>
<path d="M2315 609 c-4 -6 -5 -12 -2 -15 2 -3 7 2 10 11 7 17 1 20 -8 4z"/>
<path d="M2050 601 c0 -7 -5 -9 -12 -5 -7 5 -8 3 -3 -5 5 -9 10 -10 18 -2 6 6
8 14 4 18 -4 3 -7 1 -7 -6z"/>
<path d="M2493 595 c0 -8 4 -12 9 -9 5 3 6 10 3 15 -9 13 -12 11 -12 -6z"/>
<path d="M3011 594 c0 -11 3 -14 6 -6 3 7 2 16 -1 19 -3 4 -6 -2 -5 -13z"/>
<path d="M3406 593 c-6 -14 -5 -15 5 -6 7 7 10 15 7 18 -3 3 -9 -2 -12 -12z"/>
<path d="M3630 606 c0 -3 9 -10 20 -16 11 -6 20 -8 20 -6 0 3 -9 10 -20 16
-11 6 -20 8 -20 6z"/>
<path d="M4111 594 c0 -11 3 -14 6 -6 3 7 2 16 -1 19 -3 4 -6 -2 -5 -13z"/>
<path d="M1645 590 c-3 -6 1 -7 9 -4 18 7 21 14 7 14 -6 0 -13 -4 -16 -10z"/>
<path d="M2375 590 c3 -5 8 -10 11 -10 2 0 4 5 4 10 0 6 -5 10 -11 10 -5 0 -7
-4 -4 -10z"/>
</g>
</svg>
